<svg width="64" height="64" viewBox="0 0 64 64" fill="none" xmlns="http://www.w3.org/2000/svg">
<path opacity="0.4" d="M42.868 5.33325H51.8973C55.6367 5.33325 58.6667 8.38886 58.6667 12.1598V21.2653C58.6667 25.0363 55.6367 28.0919 51.8973 28.0919H42.868C39.1286 28.0919 36.0986 25.0363 36.0986 21.2653V12.1598C36.0986 8.38886 39.1286 5.33325 42.868 5.33325Z" fill="#F4F4F4"/>
<path fill-rule="evenodd" clip-rule="evenodd" d="M12.1027 5.33325H21.132C24.8713 5.33325 27.9014 8.38886 27.9014 12.1598V21.2653C27.9014 25.0363 24.8713 28.0919 21.132 28.0919H12.1027C8.36333 28.0919 5.33331 25.0363 5.33331 21.2653V12.1598C5.33331 8.38886 8.36333 5.33325 12.1027 5.33325ZM12.1027 35.9079H21.132C24.8713 35.9079 27.9014 38.9635 27.9014 42.7344V51.8399C27.9014 55.6083 24.8713 58.6665 21.132 58.6665H12.1027C8.36333 58.6665 5.33331 55.6083 5.33331 51.8399V42.7344C5.33331 38.9635 8.36333 35.9079 12.1027 35.9079ZM51.8973 35.9079H42.868C39.1286 35.9079 36.0986 38.9635 36.0986 42.7344V51.8399C36.0986 55.6083 39.1286 58.6665 42.868 58.6665H51.8973C55.6366 58.6665 58.6667 55.6083 58.6667 51.8399V42.7344C58.6667 38.9635 55.6366 35.9079 51.8973 35.9079Z" fill="#F4F4F4"/>
</svg>
