<svg width="48" height="48" viewBox="0 0 48 48" fill="none" xmlns="http://www.w3.org/2000/svg">
<path opacity="0.4" d="M39.9851 37.9065H28.5966C27.4854 37.9065 26.5817 38.8245 26.5817 39.9532C26.5817 41.0841 27.4854 42 28.5966 42H39.9851C41.0963 42 42 41.0841 42 39.9532C42 38.8245 41.0963 37.9065 39.9851 37.9065Z" fill="#7170C4"/>
<path d="M20.618 13.8077L31.4098 22.5279C31.6701 22.7364 31.7145 23.1191 31.5114 23.3857L18.7175 40.0564C17.9132 41.0862 16.728 41.6688 15.4582 41.6903L8.47392 41.7763C8.10143 41.7806 7.7755 41.5227 7.69084 41.1529L6.10351 34.2515C5.82837 32.9831 6.10351 31.6716 6.90776 30.6611L19.7651 13.9109C19.9725 13.6422 20.3556 13.5949 20.618 13.8077Z" fill="#7170C4"/>
<path opacity="0.4" d="M36.2412 17.3309L34.1607 19.928C33.9512 20.1925 33.5745 20.2355 33.3141 20.0248C30.785 17.978 24.3087 12.7257 22.5118 11.2702C22.2494 11.0552 22.2134 10.6725 22.4251 10.4059L24.4315 7.91411C26.2516 5.57067 29.4263 5.35568 31.9871 7.39813L34.929 9.74157C36.1354 10.6875 36.9396 11.9345 37.2147 13.246C37.5322 14.6886 37.1936 16.1054 36.2412 17.3309Z" fill="#7170C4"/>
</svg>
