<svg width="45" height="45" viewBox="0 0 45 45" fill="none" xmlns="http://www.w3.org/2000/svg">
<path opacity="0.4" d="M18.9062 29.9211H6.57707C5.01666 29.9211 3.75 31.1656 3.75 32.6986C3.75 34.2296 5.01666 35.4761 6.57707 35.4761H18.9062C20.4666 35.4761 21.7332 34.2296 21.7332 32.6986C21.7332 31.1656 20.4666 29.9211 18.9062 29.9211Z" fill="#2E4D72"/>
<path opacity="0.4" d="M41.2499 11.96C41.2499 10.429 39.9833 9.18457 38.425 9.18457H26.0959C24.5355 9.18457 23.2688 10.429 23.2688 11.96C23.2688 13.4931 24.5355 14.7375 26.0959 14.7375H38.425C39.9833 14.7375 41.2499 13.4931 41.2499 11.96Z" fill="#2E4D72"/>
<path d="M16.6458 11.9598C16.6458 15.4598 13.7604 18.2966 10.1979 18.2966C6.63748 18.2966 3.75 15.4598 3.75 11.9598C3.75 8.46184 6.63748 5.625 10.1979 5.625C13.7604 5.625 16.6458 8.46184 16.6458 11.9598Z" fill="#2E4D72"/>
<path d="M41.25 32.6235C41.25 36.1214 38.3646 38.9583 34.8021 38.9583C31.2417 38.9583 28.3542 36.1214 28.3542 32.6235C28.3542 29.1235 31.2417 26.2866 34.8021 26.2866C38.3646 26.2866 41.25 29.1235 41.25 32.6235Z" fill="#2E4D72"/>
</svg>
