<svg width="84" height="84" viewBox="0 0 84 84" fill="none" xmlns="http://www.w3.org/2000/svg">
<path opacity="0.4" d="M42.0002 77.0007C22.6977 77.0007 7.00024 61.2997 7.00024 42.0007C7.00024 22.7017 22.6977 7.00073 42.0002 7.00073C61.2992 7.00073 77.0002 22.7017 77.0002 42.0007C77.0002 61.2997 61.2992 77.0007 42.0002 77.0007Z" fill="#2E4D72"/>
<path d="M47.0486 56.7733C46.3801 56.7733 45.7081 56.5178 45.1971 56.0068L32.9926 43.8618C32.4991 43.3683 32.2226 42.6998 32.2226 41.9998C32.2226 41.3033 32.4991 40.6348 32.9926 40.1413L45.1971 27.9893C46.2226 26.9673 47.8816 26.9673 48.9071 27.9963C49.9291 29.0253 49.9256 30.6878 48.9001 31.7098L38.5646 41.9998L48.9001 52.2898C49.9256 53.3118 49.9291 54.9708 48.9071 55.9998C48.3961 56.5178 47.7206 56.7733 47.0486 56.7733Z" fill="#2E4D72"/>
</svg>
