<svg width="83" height="83" viewBox="0 0 83 83" fill="none" xmlns="http://www.w3.org/2000/svg">
<path opacity="0.4" d="M57.6389 6.91663H25.3611C13.5874 6.91663 6.91666 13.5874 6.91666 25.3611V57.6389C6.91666 69.3818 13.5567 76.0833 25.3611 76.0833H57.6389C69.4126 76.0833 76.0833 69.3818 76.0833 57.6389V25.3611C76.0833 13.5874 69.4126 6.91663 57.6389 6.91663Z" fill="#7170C4"/>
<path d="M52.9832 43.9496H44.0921V52.7637C44.0921 54.1828 42.9316 55.3333 41.5 55.3333C40.0684 55.3333 38.9079 54.1828 38.9079 52.7637V43.9496H30.0168C28.6814 43.8125 27.6667 42.697 27.6667 41.3662C27.6667 40.0354 28.6814 38.9198 30.0168 38.7828H38.88V29.9963C39.0183 28.6726 40.1436 27.6666 41.4861 27.6666C42.8285 27.6666 43.9538 28.6726 44.0921 29.9963V38.7828H52.9832C54.3186 38.9198 55.3333 40.0354 55.3333 41.3662C55.3333 42.697 54.3186 43.8125 52.9832 43.9496Z" fill="#7170C4"/>
</svg>
