<svg width="84" height="84" viewBox="0 0 84 84" fill="none" xmlns="http://www.w3.org/2000/svg">
<path opacity="0.4" d="M41.9995 6.99927C61.302 6.99927 76.9995 22.7003 76.9995 41.9993C76.9995 61.2983 61.302 76.9993 41.9995 76.9993C22.7005 76.9993 6.99951 61.2983 6.99951 41.9993C6.99951 22.7003 22.7005 6.99927 41.9995 6.99927Z" fill="#2E4D72"/>
<path d="M36.9509 27.2267C37.6194 27.2267 38.2914 27.4822 38.8024 27.9932L51.0069 40.1382C51.5004 40.6317 51.7769 41.3002 51.7769 42.0002C51.7769 42.6967 51.5004 43.3652 51.0069 43.8587L38.8024 56.0107C37.7769 57.0327 36.1179 57.0327 35.0924 56.0037C34.0704 54.9747 34.0739 53.3122 35.0994 52.2902L45.4349 42.0002L35.0994 31.7102C34.0739 30.6882 34.0704 29.0292 35.0924 28.0002C35.6034 27.4822 36.2789 27.2267 36.9509 27.2267Z" fill="#2E4D72"/>
</svg>
