<svg width="74" height="74" viewBox="0 0 74 74" fill="none" xmlns="http://www.w3.org/2000/svg">
<path opacity="0.4" d="M67.8327 36.9998C67.8327 54.0322 54.0287 67.8332 36.9994 67.8332C19.9702 67.8332 6.16608 54.0322 6.16608 36.9998C6.16608 19.9737 19.9702 6.1665 36.9994 6.1665C54.0287 6.1665 67.8327 19.9737 67.8327 36.9998Z" fill="#2E4D72"/>
<path d="M48.0183 48.7613C47.6144 48.7613 47.2074 48.6564 46.8343 48.4375L34.7292 41.2164C34.0323 40.797 33.6038 40.0416 33.6038 39.2276V23.666C33.6038 22.3895 34.6398 21.3535 35.9163 21.3535C37.1928 21.3535 38.2288 22.3895 38.2288 23.666V37.9141L49.2054 44.46C50.3 45.1168 50.6608 46.5351 50.0071 47.6328C49.5723 48.3574 48.8046 48.7613 48.0183 48.7613Z" fill="#2E4D72"/>
</svg>
